<mxfile host="65bd71144e">
    <diagram id="X2d" name="Style-Plain">
        <mxGraphModel dx="862" dy="583" grid="0" gridSize="10" guides="1" tooltips="1" connect="1" arrows="1" fold="1" page="1" pageScale="1" pageWidth="1169" pageHeight="827" background="#fafafa" math="0" shadow="0">
            <root>
                <mxCell id="page_root_X2d"/>
                <mxCell id="node_root_X2d" parent="page_root_X2d"/>
                <mxCell id="X2d-2" value="&lt;p style=&quot;margin:0px;margin-left:4px;margin-top:4px;text-align:center&quot;&gt;&lt;b&gt;Container&lt;/b&gt;&lt;/p&gt;&lt;hr size=&quot;1&quot;/&gt;" style="whiteSpace=wrap;html=1;rounded=0;fillColor=#ffe6cc;strokeColor=#d79b00;fontColor=#333333;align=left;overflow=fill;fontSize=12;fontFamily=Helvetica" parent="node_root_X2d" vertex="1">
                    <mxGeometry x="30" y="30" width="160" height="160" as="geometry"/>
                </mxCell>
                <mxCell id="X2d-3" value="&lt;p style=&quot;margin:0px;margin-left:4px;margin-top:4px;text-align:center&quot;&gt;&lt;i&gt;&amp;lt;&amp;lt; MixIn &amp;gt;&amp;gt;&lt;/i&gt;&lt;/p&gt;&lt;p style=&quot;margin:0px;margin-left:4px;margin-top:4px;text-align:center&quot;&gt;&lt;b&gt;Block Processor&lt;/b&gt;&lt;/p&gt;&lt;hr size=&quot;1&quot;/&gt;" style="whiteSpace=wrap;html=1;rounded=0;fillColor=#dae8fc;strokeColor=#6c8ebf;fontColor=#333333;align=left;overflow=fill;fontSize=12;fontFamily=Helvetica" parent="node_root_X2d" vertex="1">
                    <mxGeometry x="250" y="30" width="160" height="160" as="geometry"/>
                </mxCell>
                <mxCell id="X2d-4" value="Documents" style="whiteSpace=wrap;html=1;rounded=0;fillColor=#f5f5f5;strokeColor=#666666;fontColor=#333333" parent="node_root_X2d" vertex="1">
                    <mxGeometry x="470" y="30" width="160" height="160" as="geometry"/>
                </mxCell>
                <mxCell id="X2d-5" value="&lt;p style=&quot;margin:0px;margin-left:4px;margin-top:4px;text-align:center&quot;&gt;&lt;i&gt;&amp;lt;&amp;lt; MixIn &amp;gt;&amp;gt;&lt;/i&gt;&lt;/p&gt;&lt;p style=&quot;margin:0px;margin-left:4px;margin-top:4px;text-align:center&quot;&gt;&lt;b&gt;Block Processor&lt;/b&gt;&lt;/p&gt;&lt;hr size=&quot;1&quot;/&gt;&lt;p style=&quot;margin:0px;margin-left:4px;margin-top:4px&quot;&gt;block: proc&lt;/p&gt;&lt;p style=&quot;margin:0px;margin-left:4px;margin-top:4px&quot;&gt;block_state: symbol&lt;/p&gt;&lt;hr size=&quot;1&quot;/&gt;&lt;p style=&quot;margin:0px;margin-left:4px;margin-top:4px&quot;&gt;depend_on()&lt;/p&gt;" style="whiteSpace=wrap;html=1;rounded=0;fillColor=#dae8fc;strokeColor=#6c8ebf;fontColor=#333333;align=left;overflow=fill;fontSize=12;fontFamily=Helvetica" parent="node_root_X2d" vertex="1">
                    <mxGeometry x="690" y="30" width="160" height="160" as="geometry"/>
                </mxCell>
                <mxCell id="4tbYCbTjaN7O87TdMOiT-0" value="&lt;div style=&quot;color: rgb(212 , 212 , 212) ; background-color: rgb(30 , 30 , 30) ; font-family: &amp;#34;menlo&amp;#34; , &amp;#34;monaco&amp;#34; , &amp;#34;courier new&amp;#34; , monospace ; line-height: 18px&quot;&gt;&lt;span style=&quot;color: #ce9178&quot;&gt;db_schema.json&lt;/span&gt;&lt;/div&gt;" style="shape=cylinder3;whiteSpace=wrap;html=1;boundedLbl=1;backgroundOutline=1;size=15;" vertex="1" parent="node_root_X2d">
                    <mxGeometry x="50" y="199" width="60" height="80" as="geometry"/>
                </mxCell>
                <mxCell id="4tbYCbTjaN7O87TdMOiT-1" value="11111111" style="shape=datastore;whiteSpace=wrap;html=1;" vertex="1" parent="node_root_X2d">
                    <mxGeometry x="182" y="112" width="60" height="60" as="geometry"/>
                </mxCell>
                <mxCell id="4tbYCbTjaN7O87TdMOiT-2" value="db_schema.json" style="strokeWidth=1;html=1;shape=mxgraph.flowchart.database;whiteSpace=wrap;" vertex="1" parent="node_root_X2d">
                    <mxGeometry x="193" y="249" width="138" height="60" as="geometry"/>
                </mxCell>
            </root>
        </mxGraphModel>
    </diagram>
</mxfile>